<?xml version="1.0" encoding="UTF-8"?>
<svg width="1200pt" height="1200pt" version="1.1" viewBox="0 0 1200 1200" xmlns="http://www.w3.org/2000/svg">
 <g>
  <path d="m942 1172.4c-6 0-12-4.8008-12-12 0-7.1992 4.8008-12 12-12h61.199c6 0 12 4.8008 12 12 0 7.1992-4.8008 12-12 12zm-60 0h-60c-6 0-12-4.8008-12-12 0-7.1992 4.8008-12 12-12h60c6 0 12 4.8008 12 12 0 7.2031-4.8008 12-12 12zm-120 0h-60c-6 0-12-4.8008-12-12 0-7.1992 4.8008-12 12-12h60c6 0 12 4.8008 12 12 0 7.2031-6 12-12 12zm-121.2 0c-21.602 0-43.199-4.8008-63.602-13.199-6-2.3984-8.3984-9.6016-6-15.602 2.3984-6 9.6016-8.3984 15.602-6 16.801 7.1992 36 10.801 54 10.801 6 0 12 4.8008 10.801 12 1.1992 7.2031-3.6016 12-10.801 12zm421.2-10.797c-4.8008 0-8.3984-2.3984-10.801-7.1992-2.3984-6 0-13.199 6-14.398 18-7.1992 33.602-16.801 46.801-30 4.8008-4.8008 12-3.6016 16.801 0 4.8008 4.8008 3.6016 12 0 16.801-15.602 14.398-33.602 26.398-54 34.801-1.1992-0.003907-3.6016-0.003907-4.8008-0.003907zm-530.4-33.602c-2.3984 0-6-1.1992-8.3984-3.6016-15.602-14.398-28.801-32.398-37.199-51.602-2.3984-6 0-13.199 6-15.602 6-2.3984 13.199 0 15.602 6 8.3984 16.801 19.199 32.398 32.398 45.602 4.8008 4.8008 4.8008 12 0 16.801-1.2031 1.2031-4.8047 2.4023-8.4023 2.4023zm616.8-46.801c-1.1992 0-3.6016 0-4.8008-1.1992-6-2.3984-8.3984-9.6016-6-15.602 8.3984-16.801 13.199-34.801 14.398-54 0-6 6-10.801 12-10.801s10.801 6 10.801 12c-1.1992 21.602-7.1992 42-16.801 62.398-1.1953 4.8047-4.7969 7.2031-9.5977 7.2031zm-666-60c-6 0-10.801-4.8008-12-10.801v-10.801-50.398c0-6 4.8008-12 12-12 7.1992 0 12 4.8008 12 12v50.398 9.6016c0 6-4.7969 12-12 12zm681.6-58.801c-6 0-12-4.8008-12-12v-60c0-6 4.8008-12 12-12s12 4.8008 12 12v60c0 7.2031-6 12-12 12zm-681.6-61.199c-6 0-12-4.8008-12-12v-60c0-6 4.8008-12 12-12 7.1992 0 12 4.8008 12 12v60c-1.1992 7.1992-6 12-12 12zm681.6-58.801c-6 0-12-4.8008-12-12v-60c0-6 4.8008-12 12-12s12 4.8008 12 12v60c0 7.2031-6 12-12 12zm-681.6-62.398c-6 0-12-4.8008-12-12v-60c0-6 4.8008-12 12-12 7.1992 0 12 4.8008 12 12v60c-1.1992 7.1992-6 12-12 12zm681.6-57.602c-6 0-12-4.8008-12-12v-60c0-6 4.8008-12 12-12s12 4.8008 12 12v60c0 6-6 12-12 12zm0-121.2c-6 0-12-4.8008-12-12v-60c0-6 4.8008-12 12-12s12 4.8008 12 12v60c0 7.1992-6 12-12 12zm-681.6-61.199c-6 0-12-4.8008-12-12v-60c0-6 4.8008-12 12-12 7.1992 0 12 4.8008 12 12v60c-1.1992 6-6 12-12 12zm681.6-58.801c-6 0-12-4.8008-12-12v-50.398-9.6016c0-6 4.8008-12 10.801-12s12 4.8008 12 10.801v10.801 50.398c1.1992 6-4.8008 12-10.801 12zm-681.6-62.398c-7.1992 0-12-6-12-12 1.1992-21.602 7.1992-42 16.801-62.398 2.3984-6 9.6016-8.3984 15.602-4.8008 6 2.3984 8.3984 9.6016 4.8008 15.602-8.3984 16.801-13.199 34.801-14.398 54-0.003906 4.7969-4.8047 9.5977-10.805 9.5977zm666-56.402c-4.8008 0-8.3984-2.3984-10.801-7.1992-8.3984-16.801-19.199-32.398-32.398-45.602-4.8008-4.8008-4.8008-12 0-16.801s12-4.8008 16.801 0c15.602 14.398 28.801 32.398 37.199 51.602 2.3984 6 0 13.199-6 15.602-1.1992 2.3984-2.3984 2.3984-4.8008 2.3984zm-614.4-49.199c-3.6016 0-6-1.1992-8.3984-3.6016-4.8008-4.8008-3.6016-12 0-16.801 15.602-14.398 33.602-26.398 54-34.801 6-2.3984 13.199 0 14.398 6 2.3984 6 0 13.199-6 14.398-18 7.1992-33.602 16.801-46.801 30-2.3984 3.6055-4.8008 4.8047-7.1992 4.8047zm529.2-31.199c-1.1992 0-2.3984 0-4.8008-1.1992-16.801-7.1992-36-10.801-54-10.801-6 0-12-4.8008-10.801-12 0-6 4.8008-10.801 12-10.801 21.602 0 43.199 4.8008 62.398 13.199 6 2.3984 8.3984 9.6016 6 15.602-1.1953 2.3984-5.9961 6-10.797 6zm-118.8-12h-60c-6 0-12-4.8008-12-12 0-6 4.8008-12 12-12h60c6 0 12 4.8008 12 12 0 6-6 12-12 12zm-120 0h-60c-6 0-12-4.8008-12-12 0-6 4.8008-12 12-12h60c6 0 12 4.8008 12 12-1.1992 6-6 12-12 12zm-121.2 0h-60c-6 0-12-4.8008-12-12 0-6 4.8008-12 10.801-12h60c6 0 12 4.8008 12 12 1.1992 6-4.8008 12-10.801 12z"/>
  <path d="m972 802.8-44.398 26.398 1.1992-9.6016c21.602-129.6-66-261.6-195.6-294-20.398-4.8008-42-8.3984-63.602-8.3984-114 0-110.4 8.3984 0 8.3984 20.398 0 40.801 2.3984 61.199 7.1992 126 32.398 210 156 190.8 282l-2.3984 13.199-26.398-44.398c-1.1992-1.1992-2.3984-2.3984-3.6016-2.3984h-2.3984c-1.1992 0-1.1992 1.1992-2.3984 2.3984v3.6016l31.199 52.801c1.1992 2.3984 3.6016 2.3984 6 1.1992l52.801-31.199c2.3984-1.1992 2.3984-3.6016 1.1992-6 1.1992-1.1992-1.2031-2.3984-3.6016-1.1992z"/>
  <path d="m986.4 799.2c-2.3984-3.6016-7.1992-6-12-6-2.3984 0-4.8008 1.1992-7.1992 2.3984l-27.602 15.602c16.801-130.8-73.199-261.6-204-295.2-21.602-6-43.199-8.3984-64.801-8.3984-117.6 0-105.6 26.398 0 26.398 19.199 0 39.602 2.3984 58.801 7.1992 116.4 30 195.6 141.6 184.8 258l-13.199-21.602c-2.3984-3.6016-7.1992-6-12-6-2.3984 0-4.8008 1.1992-7.1992 2.3984-3.6016 2.3984-4.8008 4.8008-6 8.3984-1.1992 3.6016 0 7.1992 1.1992 9.6016l31.199 52.801c2.3984 3.6016 7.1992 6 12 6 2.3984 0 4.8008-1.1992 7.1992-2.3984l52.801-31.199c3.6016-2.3984 4.8008-4.8008 6-8.3984 2.4023-2.4023 1.2031-6 0-9.6016zm-9.5977 10.801-52.801 31.199c-2.3984 1.1992-4.8008 0-6-1.1992l-31.199-52.801c0-1.1992-1.1992-2.3984 0-3.6016 0-1.1992 1.1992-2.3984 2.3984-2.3984h2.3984c1.1992 0 2.3984 1.1992 3.6016 2.3984l26.398 44.398 2.3984-13.199c19.199-126-64.801-249.6-190.8-282-20.398-4.8008-40.801-7.1992-61.199-7.1992-110.4 0-114-8.3984 0-8.3984 21.602 0 42 2.3984 63.602 8.3984 129.6 32.398 217.2 164.4 195.6 294l-1.1992 9.6016 44.398-26.398c2.3984-1.1992 4.8008 0 6 1.1992-1.1992 2.3984-1.1992 4.8008-3.5977 6z"/>
  <path d="m544.8 28.801h-360c-88.801 0-160.8 72-160.8 160.8v580.8c0 88.801 72 160.8 160.8 160.8h360c88.801 0 160.8-72 160.8-160.8v-580.8c0-88.801-72-160.8-160.8-160.8zm-64.801 590.4h-67.199l39.602 92.398c1.1992 3.6016 0 7.1992-3.6016 8.3984l-43.199 18h-2.3984-2.3984l-3.6016-3.6016-40.801-96-50.398 43.199c-1.1992 1.1992-3.6016 2.3984-6 2.3984-6 0-9.6016-4.8008-9.6016-9.6016v-247.2c0-8.3984 9.6016-13.199 16.801-7.1992l181.2 181.2c2.3984 3.6016 2.3984 6 2.3984 7.1992 0 7.2109-4.8008 10.809-10.801 10.809z"/>
 </g>
</svg>
