<?xml version="1.0" encoding="UTF-8"?>
<svg width="1200pt" height="1200pt" version="1.1" viewBox="0 0 1200 1200" xmlns="http://www.w3.org/2000/svg">
 <path d="m1054.2 993.62c-36.27 62.789-95.996 108.6-166.04 127.36-70.047 18.754-144.67 8.9141-207.46-27.355s-108.6-95.996-127.36-166.04c-18.754-70.047-8.9141-144.67 27.355-207.46l143.5-248.5c9.3438-16.465 22.91-30.141 39.305-39.609 16.391-9.4727 35.016-14.395 53.945-14.266 18.93-0.12891 37.555 4.793 53.945 14.266 16.395 9.4688 29.961 23.145 39.305 39.609l143.5 248.5c24.316 41.473 37.133 88.676 37.133 136.75s-12.816 95.277-37.133 136.75zm-549.25 43.875c-32.043-54.758-48.934-117.05-48.934-180.5s16.891-125.74 48.934-180.5l143.38-248.62c22.645-39.75 58.652-70.18 101.62-85.875l-115.75-200c-25.621-44.32-72.93-71.617-124.12-71.617s-98.504 27.297-124.12 71.617l-223.5 386.38c-47.203 81.758-64.066 177.54-47.625 270.51 16.441 92.965 65.137 177.16 137.52 237.77 72.383 60.605 163.82 93.75 258.23 93.602 21.77 0 43.5-1.7109 65-5.125-27.961-25.352-51.789-54.918-70.625-87.625z" fill="#e3ecf6"/>
</svg>
