<?xml version="1.0" encoding="UTF-8"?>
<svg width="1200pt" height="1200pt" version="1.1" viewBox="0 0 1200 1200" xmlns="http://www.w3.org/2000/svg">
 <g fill="#e3ecf6">
  <path d="m754.39 272.1c-14.344-4.332-30.039 0.35547-39.637 11.945-9.6367 11.586-11.383 27.789-4.4805 41.176 24.957 48.336 37.613 100.24 37.613 154.27 0 186.09-151.41 337.5-337.5 337.5-32.906 0-65.68-4.8555-97.445-14.418-14.438-4.3672-30.039 0.35547-39.656 11.945-9.6172 11.57-11.383 27.77-4.4805 41.156 71.195 138.04 211.67 223.82 366.58 223.82 227.46 0 412.5-185.04 412.5-412.5 0-180.49-120.7-342.87-293.5-394.9z"/>
  <path d="m339.62 441.99c-20.699 0-37.5 16.801-37.5 37.5 0 20.699 16.801 37.5 37.5 37.5h107.44l-136.26 163.48c-9.3203 11.176-11.324 26.738-5.1367 39.918 6.168 13.164 19.406 21.582 33.957 21.582h187.5c20.699 0 37.5-16.801 37.5-37.5 0-20.699-16.801-37.5-37.5-37.5h-107.44l136.26-163.48c9.3203-11.176 11.324-26.738 5.1367-39.898-6.168-13.18-19.406-21.602-33.957-21.602z"/>
  <path d="m339.62 383.01c0-20.699-16.801-37.5-37.5-37.5h-37.5l67.5-90c8.5312-11.363 9.8828-26.57 3.543-39.281-6.3555-12.695-19.352-20.719-33.543-20.719h-112.5c-20.699 0-37.5 16.801-37.5 37.5 0 20.699 16.801 37.5 37.5 37.5h37.5l-67.5 90c-8.5312 11.363-9.8828 26.57-3.543 39.281 6.3555 12.695 19.352 20.719 33.543 20.719h112.5c20.719 0 37.5-16.781 37.5-37.5z"/>
  <path d="m414.62 195.51h4.9297l-36.133 54.207c-7.668 11.512-8.3828 26.305-1.8555 38.492 6.5234 12.188 19.219 19.801 33.055 19.801h75c20.699 0 37.5-16.801 37.5-37.5 0-20.699-16.801-37.5-37.5-37.5h-4.9258l36.133-54.207c7.668-11.512 8.3828-26.305 1.8555-38.492-6.5234-12.188-19.219-19.801-33.055-19.801h-75c-20.699 0-37.5 16.801-37.5 37.5-0.003906 20.699 16.797 37.5 37.496 37.5z"/>
 </g>
</svg>
