<?xml version="1.0" encoding="UTF-8"?>
<svg width="1200pt" height="1200pt" version="1.1" viewBox="0 0 1200 1200" xmlns="http://www.w3.org/2000/svg">
 <g fill="#e3ecf6">
  <path d="m1014 858-18-26.398c-92.398-128.4-236.4-202.8-396-202.8s-302.4 74.398-396 202.8l-19.199 26.398c-36 49.199-40.801 111.6-12 165.6s80.398 86.398 141.6 86.398h570c61.199 0 114-32.398 141.6-86.398 28.797-54 23.996-116.4-12.004-165.6z"/>
  <path d="m840 328.8c0 132.55-107.45 240-240 240s-240-107.45-240-240c0-132.55 107.45-240 240-240s240 107.45 240 240"/>
 </g>
</svg>
