<?xml version="1.0" encoding="UTF-8"?>
<svg width="1200pt" height="1200pt" version="1.1" viewBox="0 0 1200 1200" xmlns="http://www.w3.org/2000/svg">
 <g fill="#e3ecf6">
  <path d="m375 225c-103.11 0-187.5 84.391-187.5 187.5s84.391 187.5 187.5 187.5 187.5-84.391 187.5-187.5-84.391-187.5-187.5-187.5z"/>
  <path d="m825 225c-103.11 0-187.5 84.391-187.5 187.5s84.391 187.5 187.5 187.5 187.5-84.391 187.5-187.5-84.391-187.5-187.5-187.5zm0 75c62.578 0 112.5 49.922 112.5 112.5s-49.922 112.5-112.5 112.5-112.5-49.922-112.5-112.5 49.922-112.5 112.5-112.5z"/>
  <path d="m262.5 675c-103.23 0-187.5 84.273-187.5 187.5v75c0.003906 20.711 16.789 37.496 37.5 37.5h975c20.711-0.003906 37.496-16.789 37.5-37.5v-75c0-103.23-84.273-187.5-187.5-187.5h-225c-42.34 0-81.047 14.676-112.5 38.523-31.453-23.848-70.16-38.523-112.5-38.523zm450 75h225c62.973 0 112.5 49.527 112.5 112.5v37.5h-375v-37.5c0-34.129-9.8672-65.758-25.926-93.383 17.961-12.098 39.734-19.117 63.426-19.117z"/>
 </g>
</svg>
